M48
; DRILL file {KiCad (5.1.9)-1} date 11/16/21 01:45:50
; FORMAT={3:3/ absolute / metric / suppress leading zeros}
; #@! TF.CreationDate,2021-11-16T01:45:50-03:00
; #@! TF.GenerationSoftware,Kicad,Pcbnew,(5.1.9)-1
FMAT,2
METRIC,TZ
T1C0.400
T2C1.000
%
G90
G05
T1
X121600Y-73900
X121700Y-56100
X121700Y-58700
X121700Y-61200
X121700Y-63800
X121700Y-66300
X121700Y-68900
X121700Y-71400
X121700Y-76500
X131000Y-55500
X131000Y-59000
X131000Y-68000
X132000Y-63000
X132500Y-78250
X132750Y-73500
X134750Y-55500
X135000Y-80500
X138500Y-55500
X138500Y-59000
X139000Y-77500
X139000Y-80500
T2
X123460Y-56140
X123460Y-58680
X123460Y-61220
X123460Y-63760
X123460Y-66300
X123460Y-68840
X123460Y-71380
X123460Y-73920
X123460Y-76460
X123460Y-79000
X126000Y-56140
X126000Y-58680
X126000Y-61220
X126000Y-63760
X126000Y-66300
X126000Y-68840
X126000Y-71380
X126000Y-73920
X126000Y-76460
X126000Y-79000
X135800Y-62040
X135800Y-64580
X135800Y-67120
X135800Y-69660
X135800Y-72200
X138340Y-62040
X138340Y-64580
X138340Y-67120
X138340Y-69660
X138340Y-72200
T0
M30
