%TF.GenerationSoftware,KiCad,Pcbnew,(5.1.9)-1*%
%TF.CreationDate,2021-11-16T01:46:06-03:00*%
%TF.ProjectId,20-10-adapter,32302d31-302d-4616-9461-707465722e6b,rev?*%
%TF.SameCoordinates,Original*%
%TF.FileFunction,Copper,L4,Bot*%
%TF.FilePolarity,Positive*%
%FSLAX46Y46*%
G04 Gerber Fmt 4.6, Leading zero omitted, Abs format (unit mm)*
G04 Created by KiCad (PCBNEW (5.1.9)-1) date 2021-11-16 01:46:06*
%MOMM*%
%LPD*%
G01*
G04 APERTURE LIST*
%TA.AperFunction,ComponentPad*%
%ADD10R,1.700000X1.700000*%
%TD*%
%TA.AperFunction,ComponentPad*%
%ADD11O,1.700000X1.700000*%
%TD*%
%TA.AperFunction,ViaPad*%
%ADD12C,0.800000*%
%TD*%
%TA.AperFunction,Conductor*%
%ADD13C,0.300000*%
%TD*%
%TA.AperFunction,Conductor*%
%ADD14C,0.254000*%
%TD*%
%TA.AperFunction,Conductor*%
%ADD15C,0.100000*%
%TD*%
G04 APERTURE END LIST*
D10*
%TO.P,J2,1*%
%TO.N,SWD1*%
X126000000Y-79000000D03*
D11*
%TO.P,J2,2*%
X123460000Y-79000000D03*
%TO.P,J2,3*%
%TO.N,Net-(J2-Pad3)*%
X126000000Y-76460000D03*
%TO.P,J2,4*%
%TO.N,GND*%
X123460000Y-76460000D03*
%TO.P,J2,5*%
%TO.N,Net-(J2-Pad5)*%
X126000000Y-73920000D03*
%TO.P,J2,6*%
%TO.N,GND*%
X123460000Y-73920000D03*
%TO.P,J2,7*%
%TO.N,SWD2*%
X126000000Y-71380000D03*
%TO.P,J2,8*%
%TO.N,GND*%
X123460000Y-71380000D03*
%TO.P,J2,9*%
%TO.N,SWD4*%
X126000000Y-68840000D03*
%TO.P,J2,10*%
%TO.N,GND*%
X123460000Y-68840000D03*
%TO.P,J2,11*%
%TO.N,Net-(J2-Pad11)*%
X126000000Y-66300000D03*
%TO.P,J2,12*%
%TO.N,GND*%
X123460000Y-66300000D03*
%TO.P,J2,13*%
%TO.N,SWD6*%
X126000000Y-63760000D03*
%TO.P,J2,14*%
%TO.N,GND*%
X123460000Y-63760000D03*
%TO.P,J2,15*%
%TO.N,SWD10*%
X126000000Y-61220000D03*
%TO.P,J2,16*%
%TO.N,GND*%
X123460000Y-61220000D03*
%TO.P,J2,17*%
%TO.N,Net-(J2-Pad17)*%
X126000000Y-58680000D03*
%TO.P,J2,18*%
%TO.N,GND*%
X123460000Y-58680000D03*
%TO.P,J2,19*%
%TO.N,Net-(J2-Pad19)*%
X126000000Y-56140000D03*
%TO.P,J2,20*%
%TO.N,GND*%
X123460000Y-56140000D03*
%TD*%
D10*
%TO.P,J1,1*%
%TO.N,SWD1*%
X135800000Y-72200000D03*
D11*
%TO.P,J1,2*%
%TO.N,SWD2*%
X138340000Y-72200000D03*
%TO.P,J1,3*%
%TO.N,GND*%
X135800000Y-69660000D03*
%TO.P,J1,4*%
%TO.N,SWD4*%
X138340000Y-69660000D03*
%TO.P,J1,5*%
%TO.N,GND*%
X135800000Y-67120000D03*
%TO.P,J1,6*%
%TO.N,SWD6*%
X138340000Y-67120000D03*
%TO.P,J1,7*%
%TO.N,Net-(J1-Pad7)*%
X135800000Y-64580000D03*
%TO.P,J1,8*%
%TO.N,Net-(J1-Pad8)*%
X138340000Y-64580000D03*
%TO.P,J1,9*%
%TO.N,GND*%
X135800000Y-62040000D03*
%TO.P,J1,10*%
%TO.N,SWD10*%
X138340000Y-62040000D03*
%TD*%
D12*
%TO.N,GND*%
X121700000Y-76500000D03*
X121600000Y-73900000D03*
X121700000Y-71400000D03*
X121700000Y-68900000D03*
X121700000Y-66300000D03*
X121700000Y-63800000D03*
X121700000Y-61200000D03*
X121700000Y-58700000D03*
X121700000Y-56100000D03*
X132000000Y-63000000D03*
X139000000Y-80500000D03*
X139000000Y-77500000D03*
X131000000Y-68000000D03*
X131000000Y-55500000D03*
X138500000Y-55500000D03*
X138500000Y-59000000D03*
X131000000Y-59000000D03*
X135000000Y-80500000D03*
X134750000Y-55500000D03*
%TO.N,SWD1*%
X132500000Y-78250000D03*
X132750000Y-73500000D03*
%TD*%
D13*
%TO.N,SWD1*%
X132750000Y-78000000D02*
X132500000Y-78250000D01*
X132750000Y-73500000D02*
X132750000Y-78000000D01*
%TD*%
D14*
%TO.N,GND*%
X138203893Y-52707670D02*
X138640498Y-52839489D01*
X139043185Y-53053600D01*
X139396612Y-53341848D01*
X139687327Y-53693261D01*
X139904242Y-54094439D01*
X140039106Y-54530113D01*
X140090000Y-55014344D01*
X140090001Y-79967711D01*
X140042330Y-80453894D01*
X139910512Y-80890497D01*
X139696399Y-81293186D01*
X139408150Y-81646613D01*
X139056739Y-81937327D01*
X138655564Y-82154240D01*
X138219886Y-82289106D01*
X137735664Y-82340000D01*
X123032279Y-82340000D01*
X122546106Y-82292330D01*
X122109503Y-82160512D01*
X121706814Y-81946399D01*
X121353387Y-81658150D01*
X121062673Y-81306739D01*
X120845760Y-80905564D01*
X120710894Y-80469886D01*
X120660000Y-79985664D01*
X120660000Y-78853740D01*
X121975000Y-78853740D01*
X121975000Y-79146260D01*
X122032068Y-79433158D01*
X122144010Y-79703411D01*
X122306525Y-79946632D01*
X122513368Y-80153475D01*
X122756589Y-80315990D01*
X123026842Y-80427932D01*
X123313740Y-80485000D01*
X123606260Y-80485000D01*
X123893158Y-80427932D01*
X124163411Y-80315990D01*
X124406632Y-80153475D01*
X124538487Y-80021620D01*
X124560498Y-80094180D01*
X124619463Y-80204494D01*
X124698815Y-80301185D01*
X124795506Y-80380537D01*
X124905820Y-80439502D01*
X125025518Y-80475812D01*
X125150000Y-80488072D01*
X126850000Y-80488072D01*
X126974482Y-80475812D01*
X127094180Y-80439502D01*
X127204494Y-80380537D01*
X127301185Y-80301185D01*
X127380537Y-80204494D01*
X127439502Y-80094180D01*
X127475812Y-79974482D01*
X127488072Y-79850000D01*
X127488072Y-78150000D01*
X127487882Y-78148061D01*
X131465000Y-78148061D01*
X131465000Y-78351939D01*
X131504774Y-78551898D01*
X131582795Y-78740256D01*
X131696063Y-78909774D01*
X131840226Y-79053937D01*
X132009744Y-79167205D01*
X132198102Y-79245226D01*
X132398061Y-79285000D01*
X132601939Y-79285000D01*
X132801898Y-79245226D01*
X132990256Y-79167205D01*
X133159774Y-79053937D01*
X133303937Y-78909774D01*
X133417205Y-78740256D01*
X133495226Y-78551898D01*
X133535000Y-78351939D01*
X133535000Y-78148061D01*
X133527787Y-78111797D01*
X133535000Y-78038561D01*
X133535000Y-78038554D01*
X133538797Y-78000001D01*
X133535000Y-77961448D01*
X133535000Y-74178711D01*
X133553937Y-74159774D01*
X133667205Y-73990256D01*
X133745226Y-73801898D01*
X133785000Y-73601939D01*
X133785000Y-73398061D01*
X133745226Y-73198102D01*
X133667205Y-73009744D01*
X133553937Y-72840226D01*
X133409774Y-72696063D01*
X133240256Y-72582795D01*
X133051898Y-72504774D01*
X132851939Y-72465000D01*
X132648061Y-72465000D01*
X132448102Y-72504774D01*
X132259744Y-72582795D01*
X132090226Y-72696063D01*
X131946063Y-72840226D01*
X131832795Y-73009744D01*
X131754774Y-73198102D01*
X131715000Y-73398061D01*
X131715000Y-73601939D01*
X131754774Y-73801898D01*
X131832795Y-73990256D01*
X131946063Y-74159774D01*
X131965000Y-74178711D01*
X131965001Y-77362691D01*
X131840226Y-77446063D01*
X131696063Y-77590226D01*
X131582795Y-77759744D01*
X131504774Y-77948102D01*
X131465000Y-78148061D01*
X127487882Y-78148061D01*
X127475812Y-78025518D01*
X127439502Y-77905820D01*
X127380537Y-77795506D01*
X127301185Y-77698815D01*
X127204494Y-77619463D01*
X127094180Y-77560498D01*
X127021620Y-77538487D01*
X127153475Y-77406632D01*
X127315990Y-77163411D01*
X127427932Y-76893158D01*
X127485000Y-76606260D01*
X127485000Y-76313740D01*
X127427932Y-76026842D01*
X127315990Y-75756589D01*
X127153475Y-75513368D01*
X126946632Y-75306525D01*
X126772240Y-75190000D01*
X126946632Y-75073475D01*
X127153475Y-74866632D01*
X127315990Y-74623411D01*
X127427932Y-74353158D01*
X127485000Y-74066260D01*
X127485000Y-73773740D01*
X127427932Y-73486842D01*
X127315990Y-73216589D01*
X127153475Y-72973368D01*
X126946632Y-72766525D01*
X126772240Y-72650000D01*
X126946632Y-72533475D01*
X127153475Y-72326632D01*
X127315990Y-72083411D01*
X127427932Y-71813158D01*
X127485000Y-71526260D01*
X127485000Y-71350000D01*
X134311928Y-71350000D01*
X134311928Y-73050000D01*
X134324188Y-73174482D01*
X134360498Y-73294180D01*
X134419463Y-73404494D01*
X134498815Y-73501185D01*
X134595506Y-73580537D01*
X134705820Y-73639502D01*
X134825518Y-73675812D01*
X134950000Y-73688072D01*
X136650000Y-73688072D01*
X136774482Y-73675812D01*
X136894180Y-73639502D01*
X137004494Y-73580537D01*
X137101185Y-73501185D01*
X137180537Y-73404494D01*
X137239502Y-73294180D01*
X137261513Y-73221620D01*
X137393368Y-73353475D01*
X137636589Y-73515990D01*
X137906842Y-73627932D01*
X138193740Y-73685000D01*
X138486260Y-73685000D01*
X138773158Y-73627932D01*
X139043411Y-73515990D01*
X139286632Y-73353475D01*
X139493475Y-73146632D01*
X139655990Y-72903411D01*
X139767932Y-72633158D01*
X139825000Y-72346260D01*
X139825000Y-72053740D01*
X139767932Y-71766842D01*
X139655990Y-71496589D01*
X139493475Y-71253368D01*
X139286632Y-71046525D01*
X139112240Y-70930000D01*
X139286632Y-70813475D01*
X139493475Y-70606632D01*
X139655990Y-70363411D01*
X139767932Y-70093158D01*
X139825000Y-69806260D01*
X139825000Y-69513740D01*
X139767932Y-69226842D01*
X139655990Y-68956589D01*
X139493475Y-68713368D01*
X139286632Y-68506525D01*
X139112240Y-68390000D01*
X139286632Y-68273475D01*
X139493475Y-68066632D01*
X139655990Y-67823411D01*
X139767932Y-67553158D01*
X139825000Y-67266260D01*
X139825000Y-66973740D01*
X139767932Y-66686842D01*
X139655990Y-66416589D01*
X139493475Y-66173368D01*
X139286632Y-65966525D01*
X139112240Y-65850000D01*
X139286632Y-65733475D01*
X139493475Y-65526632D01*
X139655990Y-65283411D01*
X139767932Y-65013158D01*
X139825000Y-64726260D01*
X139825000Y-64433740D01*
X139767932Y-64146842D01*
X139655990Y-63876589D01*
X139493475Y-63633368D01*
X139286632Y-63426525D01*
X139112240Y-63310000D01*
X139286632Y-63193475D01*
X139493475Y-62986632D01*
X139655990Y-62743411D01*
X139767932Y-62473158D01*
X139825000Y-62186260D01*
X139825000Y-61893740D01*
X139767932Y-61606842D01*
X139655990Y-61336589D01*
X139493475Y-61093368D01*
X139286632Y-60886525D01*
X139043411Y-60724010D01*
X138773158Y-60612068D01*
X138486260Y-60555000D01*
X138193740Y-60555000D01*
X137906842Y-60612068D01*
X137636589Y-60724010D01*
X137393368Y-60886525D01*
X137186525Y-61093368D01*
X137068900Y-61269406D01*
X136897588Y-61039731D01*
X136681355Y-60844822D01*
X136431252Y-60695843D01*
X136156891Y-60598519D01*
X135927000Y-60719186D01*
X135927000Y-61913000D01*
X135947000Y-61913000D01*
X135947000Y-62167000D01*
X135927000Y-62167000D01*
X135927000Y-62187000D01*
X135673000Y-62187000D01*
X135673000Y-62167000D01*
X134479845Y-62167000D01*
X134358524Y-62396890D01*
X134403175Y-62544099D01*
X134528359Y-62806920D01*
X134702412Y-63040269D01*
X134918645Y-63235178D01*
X135035534Y-63304805D01*
X134853368Y-63426525D01*
X134646525Y-63633368D01*
X134484010Y-63876589D01*
X134372068Y-64146842D01*
X134315000Y-64433740D01*
X134315000Y-64726260D01*
X134372068Y-65013158D01*
X134484010Y-65283411D01*
X134646525Y-65526632D01*
X134853368Y-65733475D01*
X135035534Y-65855195D01*
X134918645Y-65924822D01*
X134702412Y-66119731D01*
X134528359Y-66353080D01*
X134403175Y-66615901D01*
X134358524Y-66763110D01*
X134479845Y-66993000D01*
X135673000Y-66993000D01*
X135673000Y-66973000D01*
X135927000Y-66973000D01*
X135927000Y-66993000D01*
X135947000Y-66993000D01*
X135947000Y-67247000D01*
X135927000Y-67247000D01*
X135927000Y-69533000D01*
X135947000Y-69533000D01*
X135947000Y-69787000D01*
X135927000Y-69787000D01*
X135927000Y-69807000D01*
X135673000Y-69807000D01*
X135673000Y-69787000D01*
X134479845Y-69787000D01*
X134358524Y-70016890D01*
X134403175Y-70164099D01*
X134528359Y-70426920D01*
X134702412Y-70660269D01*
X134786466Y-70736034D01*
X134705820Y-70760498D01*
X134595506Y-70819463D01*
X134498815Y-70898815D01*
X134419463Y-70995506D01*
X134360498Y-71105820D01*
X134324188Y-71225518D01*
X134311928Y-71350000D01*
X127485000Y-71350000D01*
X127485000Y-71233740D01*
X127427932Y-70946842D01*
X127315990Y-70676589D01*
X127153475Y-70433368D01*
X126946632Y-70226525D01*
X126772240Y-70110000D01*
X126946632Y-69993475D01*
X127153475Y-69786632D01*
X127315990Y-69543411D01*
X127427932Y-69273158D01*
X127485000Y-68986260D01*
X127485000Y-68693740D01*
X127427932Y-68406842D01*
X127315990Y-68136589D01*
X127153475Y-67893368D01*
X126946632Y-67686525D01*
X126772240Y-67570000D01*
X126911588Y-67476890D01*
X134358524Y-67476890D01*
X134403175Y-67624099D01*
X134528359Y-67886920D01*
X134702412Y-68120269D01*
X134918645Y-68315178D01*
X135044255Y-68390000D01*
X134918645Y-68464822D01*
X134702412Y-68659731D01*
X134528359Y-68893080D01*
X134403175Y-69155901D01*
X134358524Y-69303110D01*
X134479845Y-69533000D01*
X135673000Y-69533000D01*
X135673000Y-67247000D01*
X134479845Y-67247000D01*
X134358524Y-67476890D01*
X126911588Y-67476890D01*
X126946632Y-67453475D01*
X127153475Y-67246632D01*
X127315990Y-67003411D01*
X127427932Y-66733158D01*
X127485000Y-66446260D01*
X127485000Y-66153740D01*
X127427932Y-65866842D01*
X127315990Y-65596589D01*
X127153475Y-65353368D01*
X126946632Y-65146525D01*
X126772240Y-65030000D01*
X126946632Y-64913475D01*
X127153475Y-64706632D01*
X127315990Y-64463411D01*
X127427932Y-64193158D01*
X127485000Y-63906260D01*
X127485000Y-63613740D01*
X127427932Y-63326842D01*
X127315990Y-63056589D01*
X127153475Y-62813368D01*
X126946632Y-62606525D01*
X126772240Y-62490000D01*
X126946632Y-62373475D01*
X127153475Y-62166632D01*
X127315990Y-61923411D01*
X127415525Y-61683110D01*
X134358524Y-61683110D01*
X134479845Y-61913000D01*
X135673000Y-61913000D01*
X135673000Y-60719186D01*
X135443109Y-60598519D01*
X135168748Y-60695843D01*
X134918645Y-60844822D01*
X134702412Y-61039731D01*
X134528359Y-61273080D01*
X134403175Y-61535901D01*
X134358524Y-61683110D01*
X127415525Y-61683110D01*
X127427932Y-61653158D01*
X127485000Y-61366260D01*
X127485000Y-61073740D01*
X127427932Y-60786842D01*
X127315990Y-60516589D01*
X127153475Y-60273368D01*
X126946632Y-60066525D01*
X126772240Y-59950000D01*
X126946632Y-59833475D01*
X127153475Y-59626632D01*
X127315990Y-59383411D01*
X127427932Y-59113158D01*
X127485000Y-58826260D01*
X127485000Y-58533740D01*
X127427932Y-58246842D01*
X127315990Y-57976589D01*
X127153475Y-57733368D01*
X126946632Y-57526525D01*
X126772240Y-57410000D01*
X126946632Y-57293475D01*
X127153475Y-57086632D01*
X127315990Y-56843411D01*
X127427932Y-56573158D01*
X127485000Y-56286260D01*
X127485000Y-55993740D01*
X127427932Y-55706842D01*
X127315990Y-55436589D01*
X127153475Y-55193368D01*
X126946632Y-54986525D01*
X126703411Y-54824010D01*
X126433158Y-54712068D01*
X126146260Y-54655000D01*
X125853740Y-54655000D01*
X125566842Y-54712068D01*
X125296589Y-54824010D01*
X125053368Y-54986525D01*
X124846525Y-55193368D01*
X124728900Y-55369406D01*
X124557588Y-55139731D01*
X124341355Y-54944822D01*
X124091252Y-54795843D01*
X123816891Y-54698519D01*
X123587000Y-54819186D01*
X123587000Y-56013000D01*
X123607000Y-56013000D01*
X123607000Y-56267000D01*
X123587000Y-56267000D01*
X123587000Y-58553000D01*
X123607000Y-58553000D01*
X123607000Y-58807000D01*
X123587000Y-58807000D01*
X123587000Y-61093000D01*
X123607000Y-61093000D01*
X123607000Y-61347000D01*
X123587000Y-61347000D01*
X123587000Y-63633000D01*
X123607000Y-63633000D01*
X123607000Y-63887000D01*
X123587000Y-63887000D01*
X123587000Y-66173000D01*
X123607000Y-66173000D01*
X123607000Y-66427000D01*
X123587000Y-66427000D01*
X123587000Y-68713000D01*
X123607000Y-68713000D01*
X123607000Y-68967000D01*
X123587000Y-68967000D01*
X123587000Y-71253000D01*
X123607000Y-71253000D01*
X123607000Y-71507000D01*
X123587000Y-71507000D01*
X123587000Y-73793000D01*
X123607000Y-73793000D01*
X123607000Y-74047000D01*
X123587000Y-74047000D01*
X123587000Y-76333000D01*
X123607000Y-76333000D01*
X123607000Y-76587000D01*
X123587000Y-76587000D01*
X123587000Y-76607000D01*
X123333000Y-76607000D01*
X123333000Y-76587000D01*
X122139845Y-76587000D01*
X122018524Y-76816890D01*
X122063175Y-76964099D01*
X122188359Y-77226920D01*
X122362412Y-77460269D01*
X122578645Y-77655178D01*
X122695534Y-77724805D01*
X122513368Y-77846525D01*
X122306525Y-78053368D01*
X122144010Y-78296589D01*
X122032068Y-78566842D01*
X121975000Y-78853740D01*
X120660000Y-78853740D01*
X120660000Y-74276890D01*
X122018524Y-74276890D01*
X122063175Y-74424099D01*
X122188359Y-74686920D01*
X122362412Y-74920269D01*
X122578645Y-75115178D01*
X122704255Y-75190000D01*
X122578645Y-75264822D01*
X122362412Y-75459731D01*
X122188359Y-75693080D01*
X122063175Y-75955901D01*
X122018524Y-76103110D01*
X122139845Y-76333000D01*
X123333000Y-76333000D01*
X123333000Y-74047000D01*
X122139845Y-74047000D01*
X122018524Y-74276890D01*
X120660000Y-74276890D01*
X120660000Y-71736890D01*
X122018524Y-71736890D01*
X122063175Y-71884099D01*
X122188359Y-72146920D01*
X122362412Y-72380269D01*
X122578645Y-72575178D01*
X122704255Y-72650000D01*
X122578645Y-72724822D01*
X122362412Y-72919731D01*
X122188359Y-73153080D01*
X122063175Y-73415901D01*
X122018524Y-73563110D01*
X122139845Y-73793000D01*
X123333000Y-73793000D01*
X123333000Y-71507000D01*
X122139845Y-71507000D01*
X122018524Y-71736890D01*
X120660000Y-71736890D01*
X120660000Y-69196890D01*
X122018524Y-69196890D01*
X122063175Y-69344099D01*
X122188359Y-69606920D01*
X122362412Y-69840269D01*
X122578645Y-70035178D01*
X122704255Y-70110000D01*
X122578645Y-70184822D01*
X122362412Y-70379731D01*
X122188359Y-70613080D01*
X122063175Y-70875901D01*
X122018524Y-71023110D01*
X122139845Y-71253000D01*
X123333000Y-71253000D01*
X123333000Y-68967000D01*
X122139845Y-68967000D01*
X122018524Y-69196890D01*
X120660000Y-69196890D01*
X120660000Y-66656890D01*
X122018524Y-66656890D01*
X122063175Y-66804099D01*
X122188359Y-67066920D01*
X122362412Y-67300269D01*
X122578645Y-67495178D01*
X122704255Y-67570000D01*
X122578645Y-67644822D01*
X122362412Y-67839731D01*
X122188359Y-68073080D01*
X122063175Y-68335901D01*
X122018524Y-68483110D01*
X122139845Y-68713000D01*
X123333000Y-68713000D01*
X123333000Y-66427000D01*
X122139845Y-66427000D01*
X122018524Y-66656890D01*
X120660000Y-66656890D01*
X120660000Y-64116890D01*
X122018524Y-64116890D01*
X122063175Y-64264099D01*
X122188359Y-64526920D01*
X122362412Y-64760269D01*
X122578645Y-64955178D01*
X122704255Y-65030000D01*
X122578645Y-65104822D01*
X122362412Y-65299731D01*
X122188359Y-65533080D01*
X122063175Y-65795901D01*
X122018524Y-65943110D01*
X122139845Y-66173000D01*
X123333000Y-66173000D01*
X123333000Y-63887000D01*
X122139845Y-63887000D01*
X122018524Y-64116890D01*
X120660000Y-64116890D01*
X120660000Y-61576890D01*
X122018524Y-61576890D01*
X122063175Y-61724099D01*
X122188359Y-61986920D01*
X122362412Y-62220269D01*
X122578645Y-62415178D01*
X122704255Y-62490000D01*
X122578645Y-62564822D01*
X122362412Y-62759731D01*
X122188359Y-62993080D01*
X122063175Y-63255901D01*
X122018524Y-63403110D01*
X122139845Y-63633000D01*
X123333000Y-63633000D01*
X123333000Y-61347000D01*
X122139845Y-61347000D01*
X122018524Y-61576890D01*
X120660000Y-61576890D01*
X120660000Y-59036890D01*
X122018524Y-59036890D01*
X122063175Y-59184099D01*
X122188359Y-59446920D01*
X122362412Y-59680269D01*
X122578645Y-59875178D01*
X122704255Y-59950000D01*
X122578645Y-60024822D01*
X122362412Y-60219731D01*
X122188359Y-60453080D01*
X122063175Y-60715901D01*
X122018524Y-60863110D01*
X122139845Y-61093000D01*
X123333000Y-61093000D01*
X123333000Y-58807000D01*
X122139845Y-58807000D01*
X122018524Y-59036890D01*
X120660000Y-59036890D01*
X120660000Y-56496890D01*
X122018524Y-56496890D01*
X122063175Y-56644099D01*
X122188359Y-56906920D01*
X122362412Y-57140269D01*
X122578645Y-57335178D01*
X122704255Y-57410000D01*
X122578645Y-57484822D01*
X122362412Y-57679731D01*
X122188359Y-57913080D01*
X122063175Y-58175901D01*
X122018524Y-58323110D01*
X122139845Y-58553000D01*
X123333000Y-58553000D01*
X123333000Y-56267000D01*
X122139845Y-56267000D01*
X122018524Y-56496890D01*
X120660000Y-56496890D01*
X120660000Y-55783110D01*
X122018524Y-55783110D01*
X122139845Y-56013000D01*
X123333000Y-56013000D01*
X123333000Y-54819186D01*
X123103109Y-54698519D01*
X122828748Y-54795843D01*
X122578645Y-54944822D01*
X122362412Y-55139731D01*
X122188359Y-55373080D01*
X122063175Y-55635901D01*
X122018524Y-55783110D01*
X120660000Y-55783110D01*
X120660000Y-55032279D01*
X120707670Y-54546107D01*
X120839489Y-54109502D01*
X121053600Y-53706815D01*
X121341848Y-53353388D01*
X121693261Y-53062673D01*
X122094439Y-52845758D01*
X122530113Y-52710894D01*
X123014344Y-52660000D01*
X137717721Y-52660000D01*
X138203893Y-52707670D01*
%TA.AperFunction,Conductor*%
D15*
G36*
X138203893Y-52707670D02*
G01*
X138640498Y-52839489D01*
X139043185Y-53053600D01*
X139396612Y-53341848D01*
X139687327Y-53693261D01*
X139904242Y-54094439D01*
X140039106Y-54530113D01*
X140090000Y-55014344D01*
X140090001Y-79967711D01*
X140042330Y-80453894D01*
X139910512Y-80890497D01*
X139696399Y-81293186D01*
X139408150Y-81646613D01*
X139056739Y-81937327D01*
X138655564Y-82154240D01*
X138219886Y-82289106D01*
X137735664Y-82340000D01*
X123032279Y-82340000D01*
X122546106Y-82292330D01*
X122109503Y-82160512D01*
X121706814Y-81946399D01*
X121353387Y-81658150D01*
X121062673Y-81306739D01*
X120845760Y-80905564D01*
X120710894Y-80469886D01*
X120660000Y-79985664D01*
X120660000Y-78853740D01*
X121975000Y-78853740D01*
X121975000Y-79146260D01*
X122032068Y-79433158D01*
X122144010Y-79703411D01*
X122306525Y-79946632D01*
X122513368Y-80153475D01*
X122756589Y-80315990D01*
X123026842Y-80427932D01*
X123313740Y-80485000D01*
X123606260Y-80485000D01*
X123893158Y-80427932D01*
X124163411Y-80315990D01*
X124406632Y-80153475D01*
X124538487Y-80021620D01*
X124560498Y-80094180D01*
X124619463Y-80204494D01*
X124698815Y-80301185D01*
X124795506Y-80380537D01*
X124905820Y-80439502D01*
X125025518Y-80475812D01*
X125150000Y-80488072D01*
X126850000Y-80488072D01*
X126974482Y-80475812D01*
X127094180Y-80439502D01*
X127204494Y-80380537D01*
X127301185Y-80301185D01*
X127380537Y-80204494D01*
X127439502Y-80094180D01*
X127475812Y-79974482D01*
X127488072Y-79850000D01*
X127488072Y-78150000D01*
X127487882Y-78148061D01*
X131465000Y-78148061D01*
X131465000Y-78351939D01*
X131504774Y-78551898D01*
X131582795Y-78740256D01*
X131696063Y-78909774D01*
X131840226Y-79053937D01*
X132009744Y-79167205D01*
X132198102Y-79245226D01*
X132398061Y-79285000D01*
X132601939Y-79285000D01*
X132801898Y-79245226D01*
X132990256Y-79167205D01*
X133159774Y-79053937D01*
X133303937Y-78909774D01*
X133417205Y-78740256D01*
X133495226Y-78551898D01*
X133535000Y-78351939D01*
X133535000Y-78148061D01*
X133527787Y-78111797D01*
X133535000Y-78038561D01*
X133535000Y-78038554D01*
X133538797Y-78000001D01*
X133535000Y-77961448D01*
X133535000Y-74178711D01*
X133553937Y-74159774D01*
X133667205Y-73990256D01*
X133745226Y-73801898D01*
X133785000Y-73601939D01*
X133785000Y-73398061D01*
X133745226Y-73198102D01*
X133667205Y-73009744D01*
X133553937Y-72840226D01*
X133409774Y-72696063D01*
X133240256Y-72582795D01*
X133051898Y-72504774D01*
X132851939Y-72465000D01*
X132648061Y-72465000D01*
X132448102Y-72504774D01*
X132259744Y-72582795D01*
X132090226Y-72696063D01*
X131946063Y-72840226D01*
X131832795Y-73009744D01*
X131754774Y-73198102D01*
X131715000Y-73398061D01*
X131715000Y-73601939D01*
X131754774Y-73801898D01*
X131832795Y-73990256D01*
X131946063Y-74159774D01*
X131965000Y-74178711D01*
X131965001Y-77362691D01*
X131840226Y-77446063D01*
X131696063Y-77590226D01*
X131582795Y-77759744D01*
X131504774Y-77948102D01*
X131465000Y-78148061D01*
X127487882Y-78148061D01*
X127475812Y-78025518D01*
X127439502Y-77905820D01*
X127380537Y-77795506D01*
X127301185Y-77698815D01*
X127204494Y-77619463D01*
X127094180Y-77560498D01*
X127021620Y-77538487D01*
X127153475Y-77406632D01*
X127315990Y-77163411D01*
X127427932Y-76893158D01*
X127485000Y-76606260D01*
X127485000Y-76313740D01*
X127427932Y-76026842D01*
X127315990Y-75756589D01*
X127153475Y-75513368D01*
X126946632Y-75306525D01*
X126772240Y-75190000D01*
X126946632Y-75073475D01*
X127153475Y-74866632D01*
X127315990Y-74623411D01*
X127427932Y-74353158D01*
X127485000Y-74066260D01*
X127485000Y-73773740D01*
X127427932Y-73486842D01*
X127315990Y-73216589D01*
X127153475Y-72973368D01*
X126946632Y-72766525D01*
X126772240Y-72650000D01*
X126946632Y-72533475D01*
X127153475Y-72326632D01*
X127315990Y-72083411D01*
X127427932Y-71813158D01*
X127485000Y-71526260D01*
X127485000Y-71350000D01*
X134311928Y-71350000D01*
X134311928Y-73050000D01*
X134324188Y-73174482D01*
X134360498Y-73294180D01*
X134419463Y-73404494D01*
X134498815Y-73501185D01*
X134595506Y-73580537D01*
X134705820Y-73639502D01*
X134825518Y-73675812D01*
X134950000Y-73688072D01*
X136650000Y-73688072D01*
X136774482Y-73675812D01*
X136894180Y-73639502D01*
X137004494Y-73580537D01*
X137101185Y-73501185D01*
X137180537Y-73404494D01*
X137239502Y-73294180D01*
X137261513Y-73221620D01*
X137393368Y-73353475D01*
X137636589Y-73515990D01*
X137906842Y-73627932D01*
X138193740Y-73685000D01*
X138486260Y-73685000D01*
X138773158Y-73627932D01*
X139043411Y-73515990D01*
X139286632Y-73353475D01*
X139493475Y-73146632D01*
X139655990Y-72903411D01*
X139767932Y-72633158D01*
X139825000Y-72346260D01*
X139825000Y-72053740D01*
X139767932Y-71766842D01*
X139655990Y-71496589D01*
X139493475Y-71253368D01*
X139286632Y-71046525D01*
X139112240Y-70930000D01*
X139286632Y-70813475D01*
X139493475Y-70606632D01*
X139655990Y-70363411D01*
X139767932Y-70093158D01*
X139825000Y-69806260D01*
X139825000Y-69513740D01*
X139767932Y-69226842D01*
X139655990Y-68956589D01*
X139493475Y-68713368D01*
X139286632Y-68506525D01*
X139112240Y-68390000D01*
X139286632Y-68273475D01*
X139493475Y-68066632D01*
X139655990Y-67823411D01*
X139767932Y-67553158D01*
X139825000Y-67266260D01*
X139825000Y-66973740D01*
X139767932Y-66686842D01*
X139655990Y-66416589D01*
X139493475Y-66173368D01*
X139286632Y-65966525D01*
X139112240Y-65850000D01*
X139286632Y-65733475D01*
X139493475Y-65526632D01*
X139655990Y-65283411D01*
X139767932Y-65013158D01*
X139825000Y-64726260D01*
X139825000Y-64433740D01*
X139767932Y-64146842D01*
X139655990Y-63876589D01*
X139493475Y-63633368D01*
X139286632Y-63426525D01*
X139112240Y-63310000D01*
X139286632Y-63193475D01*
X139493475Y-62986632D01*
X139655990Y-62743411D01*
X139767932Y-62473158D01*
X139825000Y-62186260D01*
X139825000Y-61893740D01*
X139767932Y-61606842D01*
X139655990Y-61336589D01*
X139493475Y-61093368D01*
X139286632Y-60886525D01*
X139043411Y-60724010D01*
X138773158Y-60612068D01*
X138486260Y-60555000D01*
X138193740Y-60555000D01*
X137906842Y-60612068D01*
X137636589Y-60724010D01*
X137393368Y-60886525D01*
X137186525Y-61093368D01*
X137068900Y-61269406D01*
X136897588Y-61039731D01*
X136681355Y-60844822D01*
X136431252Y-60695843D01*
X136156891Y-60598519D01*
X135927000Y-60719186D01*
X135927000Y-61913000D01*
X135947000Y-61913000D01*
X135947000Y-62167000D01*
X135927000Y-62167000D01*
X135927000Y-62187000D01*
X135673000Y-62187000D01*
X135673000Y-62167000D01*
X134479845Y-62167000D01*
X134358524Y-62396890D01*
X134403175Y-62544099D01*
X134528359Y-62806920D01*
X134702412Y-63040269D01*
X134918645Y-63235178D01*
X135035534Y-63304805D01*
X134853368Y-63426525D01*
X134646525Y-63633368D01*
X134484010Y-63876589D01*
X134372068Y-64146842D01*
X134315000Y-64433740D01*
X134315000Y-64726260D01*
X134372068Y-65013158D01*
X134484010Y-65283411D01*
X134646525Y-65526632D01*
X134853368Y-65733475D01*
X135035534Y-65855195D01*
X134918645Y-65924822D01*
X134702412Y-66119731D01*
X134528359Y-66353080D01*
X134403175Y-66615901D01*
X134358524Y-66763110D01*
X134479845Y-66993000D01*
X135673000Y-66993000D01*
X135673000Y-66973000D01*
X135927000Y-66973000D01*
X135927000Y-66993000D01*
X135947000Y-66993000D01*
X135947000Y-67247000D01*
X135927000Y-67247000D01*
X135927000Y-69533000D01*
X135947000Y-69533000D01*
X135947000Y-69787000D01*
X135927000Y-69787000D01*
X135927000Y-69807000D01*
X135673000Y-69807000D01*
X135673000Y-69787000D01*
X134479845Y-69787000D01*
X134358524Y-70016890D01*
X134403175Y-70164099D01*
X134528359Y-70426920D01*
X134702412Y-70660269D01*
X134786466Y-70736034D01*
X134705820Y-70760498D01*
X134595506Y-70819463D01*
X134498815Y-70898815D01*
X134419463Y-70995506D01*
X134360498Y-71105820D01*
X134324188Y-71225518D01*
X134311928Y-71350000D01*
X127485000Y-71350000D01*
X127485000Y-71233740D01*
X127427932Y-70946842D01*
X127315990Y-70676589D01*
X127153475Y-70433368D01*
X126946632Y-70226525D01*
X126772240Y-70110000D01*
X126946632Y-69993475D01*
X127153475Y-69786632D01*
X127315990Y-69543411D01*
X127427932Y-69273158D01*
X127485000Y-68986260D01*
X127485000Y-68693740D01*
X127427932Y-68406842D01*
X127315990Y-68136589D01*
X127153475Y-67893368D01*
X126946632Y-67686525D01*
X126772240Y-67570000D01*
X126911588Y-67476890D01*
X134358524Y-67476890D01*
X134403175Y-67624099D01*
X134528359Y-67886920D01*
X134702412Y-68120269D01*
X134918645Y-68315178D01*
X135044255Y-68390000D01*
X134918645Y-68464822D01*
X134702412Y-68659731D01*
X134528359Y-68893080D01*
X134403175Y-69155901D01*
X134358524Y-69303110D01*
X134479845Y-69533000D01*
X135673000Y-69533000D01*
X135673000Y-67247000D01*
X134479845Y-67247000D01*
X134358524Y-67476890D01*
X126911588Y-67476890D01*
X126946632Y-67453475D01*
X127153475Y-67246632D01*
X127315990Y-67003411D01*
X127427932Y-66733158D01*
X127485000Y-66446260D01*
X127485000Y-66153740D01*
X127427932Y-65866842D01*
X127315990Y-65596589D01*
X127153475Y-65353368D01*
X126946632Y-65146525D01*
X126772240Y-65030000D01*
X126946632Y-64913475D01*
X127153475Y-64706632D01*
X127315990Y-64463411D01*
X127427932Y-64193158D01*
X127485000Y-63906260D01*
X127485000Y-63613740D01*
X127427932Y-63326842D01*
X127315990Y-63056589D01*
X127153475Y-62813368D01*
X126946632Y-62606525D01*
X126772240Y-62490000D01*
X126946632Y-62373475D01*
X127153475Y-62166632D01*
X127315990Y-61923411D01*
X127415525Y-61683110D01*
X134358524Y-61683110D01*
X134479845Y-61913000D01*
X135673000Y-61913000D01*
X135673000Y-60719186D01*
X135443109Y-60598519D01*
X135168748Y-60695843D01*
X134918645Y-60844822D01*
X134702412Y-61039731D01*
X134528359Y-61273080D01*
X134403175Y-61535901D01*
X134358524Y-61683110D01*
X127415525Y-61683110D01*
X127427932Y-61653158D01*
X127485000Y-61366260D01*
X127485000Y-61073740D01*
X127427932Y-60786842D01*
X127315990Y-60516589D01*
X127153475Y-60273368D01*
X126946632Y-60066525D01*
X126772240Y-59950000D01*
X126946632Y-59833475D01*
X127153475Y-59626632D01*
X127315990Y-59383411D01*
X127427932Y-59113158D01*
X127485000Y-58826260D01*
X127485000Y-58533740D01*
X127427932Y-58246842D01*
X127315990Y-57976589D01*
X127153475Y-57733368D01*
X126946632Y-57526525D01*
X126772240Y-57410000D01*
X126946632Y-57293475D01*
X127153475Y-57086632D01*
X127315990Y-56843411D01*
X127427932Y-56573158D01*
X127485000Y-56286260D01*
X127485000Y-55993740D01*
X127427932Y-55706842D01*
X127315990Y-55436589D01*
X127153475Y-55193368D01*
X126946632Y-54986525D01*
X126703411Y-54824010D01*
X126433158Y-54712068D01*
X126146260Y-54655000D01*
X125853740Y-54655000D01*
X125566842Y-54712068D01*
X125296589Y-54824010D01*
X125053368Y-54986525D01*
X124846525Y-55193368D01*
X124728900Y-55369406D01*
X124557588Y-55139731D01*
X124341355Y-54944822D01*
X124091252Y-54795843D01*
X123816891Y-54698519D01*
X123587000Y-54819186D01*
X123587000Y-56013000D01*
X123607000Y-56013000D01*
X123607000Y-56267000D01*
X123587000Y-56267000D01*
X123587000Y-58553000D01*
X123607000Y-58553000D01*
X123607000Y-58807000D01*
X123587000Y-58807000D01*
X123587000Y-61093000D01*
X123607000Y-61093000D01*
X123607000Y-61347000D01*
X123587000Y-61347000D01*
X123587000Y-63633000D01*
X123607000Y-63633000D01*
X123607000Y-63887000D01*
X123587000Y-63887000D01*
X123587000Y-66173000D01*
X123607000Y-66173000D01*
X123607000Y-66427000D01*
X123587000Y-66427000D01*
X123587000Y-68713000D01*
X123607000Y-68713000D01*
X123607000Y-68967000D01*
X123587000Y-68967000D01*
X123587000Y-71253000D01*
X123607000Y-71253000D01*
X123607000Y-71507000D01*
X123587000Y-71507000D01*
X123587000Y-73793000D01*
X123607000Y-73793000D01*
X123607000Y-74047000D01*
X123587000Y-74047000D01*
X123587000Y-76333000D01*
X123607000Y-76333000D01*
X123607000Y-76587000D01*
X123587000Y-76587000D01*
X123587000Y-76607000D01*
X123333000Y-76607000D01*
X123333000Y-76587000D01*
X122139845Y-76587000D01*
X122018524Y-76816890D01*
X122063175Y-76964099D01*
X122188359Y-77226920D01*
X122362412Y-77460269D01*
X122578645Y-77655178D01*
X122695534Y-77724805D01*
X122513368Y-77846525D01*
X122306525Y-78053368D01*
X122144010Y-78296589D01*
X122032068Y-78566842D01*
X121975000Y-78853740D01*
X120660000Y-78853740D01*
X120660000Y-74276890D01*
X122018524Y-74276890D01*
X122063175Y-74424099D01*
X122188359Y-74686920D01*
X122362412Y-74920269D01*
X122578645Y-75115178D01*
X122704255Y-75190000D01*
X122578645Y-75264822D01*
X122362412Y-75459731D01*
X122188359Y-75693080D01*
X122063175Y-75955901D01*
X122018524Y-76103110D01*
X122139845Y-76333000D01*
X123333000Y-76333000D01*
X123333000Y-74047000D01*
X122139845Y-74047000D01*
X122018524Y-74276890D01*
X120660000Y-74276890D01*
X120660000Y-71736890D01*
X122018524Y-71736890D01*
X122063175Y-71884099D01*
X122188359Y-72146920D01*
X122362412Y-72380269D01*
X122578645Y-72575178D01*
X122704255Y-72650000D01*
X122578645Y-72724822D01*
X122362412Y-72919731D01*
X122188359Y-73153080D01*
X122063175Y-73415901D01*
X122018524Y-73563110D01*
X122139845Y-73793000D01*
X123333000Y-73793000D01*
X123333000Y-71507000D01*
X122139845Y-71507000D01*
X122018524Y-71736890D01*
X120660000Y-71736890D01*
X120660000Y-69196890D01*
X122018524Y-69196890D01*
X122063175Y-69344099D01*
X122188359Y-69606920D01*
X122362412Y-69840269D01*
X122578645Y-70035178D01*
X122704255Y-70110000D01*
X122578645Y-70184822D01*
X122362412Y-70379731D01*
X122188359Y-70613080D01*
X122063175Y-70875901D01*
X122018524Y-71023110D01*
X122139845Y-71253000D01*
X123333000Y-71253000D01*
X123333000Y-68967000D01*
X122139845Y-68967000D01*
X122018524Y-69196890D01*
X120660000Y-69196890D01*
X120660000Y-66656890D01*
X122018524Y-66656890D01*
X122063175Y-66804099D01*
X122188359Y-67066920D01*
X122362412Y-67300269D01*
X122578645Y-67495178D01*
X122704255Y-67570000D01*
X122578645Y-67644822D01*
X122362412Y-67839731D01*
X122188359Y-68073080D01*
X122063175Y-68335901D01*
X122018524Y-68483110D01*
X122139845Y-68713000D01*
X123333000Y-68713000D01*
X123333000Y-66427000D01*
X122139845Y-66427000D01*
X122018524Y-66656890D01*
X120660000Y-66656890D01*
X120660000Y-64116890D01*
X122018524Y-64116890D01*
X122063175Y-64264099D01*
X122188359Y-64526920D01*
X122362412Y-64760269D01*
X122578645Y-64955178D01*
X122704255Y-65030000D01*
X122578645Y-65104822D01*
X122362412Y-65299731D01*
X122188359Y-65533080D01*
X122063175Y-65795901D01*
X122018524Y-65943110D01*
X122139845Y-66173000D01*
X123333000Y-66173000D01*
X123333000Y-63887000D01*
X122139845Y-63887000D01*
X122018524Y-64116890D01*
X120660000Y-64116890D01*
X120660000Y-61576890D01*
X122018524Y-61576890D01*
X122063175Y-61724099D01*
X122188359Y-61986920D01*
X122362412Y-62220269D01*
X122578645Y-62415178D01*
X122704255Y-62490000D01*
X122578645Y-62564822D01*
X122362412Y-62759731D01*
X122188359Y-62993080D01*
X122063175Y-63255901D01*
X122018524Y-63403110D01*
X122139845Y-63633000D01*
X123333000Y-63633000D01*
X123333000Y-61347000D01*
X122139845Y-61347000D01*
X122018524Y-61576890D01*
X120660000Y-61576890D01*
X120660000Y-59036890D01*
X122018524Y-59036890D01*
X122063175Y-59184099D01*
X122188359Y-59446920D01*
X122362412Y-59680269D01*
X122578645Y-59875178D01*
X122704255Y-59950000D01*
X122578645Y-60024822D01*
X122362412Y-60219731D01*
X122188359Y-60453080D01*
X122063175Y-60715901D01*
X122018524Y-60863110D01*
X122139845Y-61093000D01*
X123333000Y-61093000D01*
X123333000Y-58807000D01*
X122139845Y-58807000D01*
X122018524Y-59036890D01*
X120660000Y-59036890D01*
X120660000Y-56496890D01*
X122018524Y-56496890D01*
X122063175Y-56644099D01*
X122188359Y-56906920D01*
X122362412Y-57140269D01*
X122578645Y-57335178D01*
X122704255Y-57410000D01*
X122578645Y-57484822D01*
X122362412Y-57679731D01*
X122188359Y-57913080D01*
X122063175Y-58175901D01*
X122018524Y-58323110D01*
X122139845Y-58553000D01*
X123333000Y-58553000D01*
X123333000Y-56267000D01*
X122139845Y-56267000D01*
X122018524Y-56496890D01*
X120660000Y-56496890D01*
X120660000Y-55783110D01*
X122018524Y-55783110D01*
X122139845Y-56013000D01*
X123333000Y-56013000D01*
X123333000Y-54819186D01*
X123103109Y-54698519D01*
X122828748Y-54795843D01*
X122578645Y-54944822D01*
X122362412Y-55139731D01*
X122188359Y-55373080D01*
X122063175Y-55635901D01*
X122018524Y-55783110D01*
X120660000Y-55783110D01*
X120660000Y-55032279D01*
X120707670Y-54546107D01*
X120839489Y-54109502D01*
X121053600Y-53706815D01*
X121341848Y-53353388D01*
X121693261Y-53062673D01*
X122094439Y-52845758D01*
X122530113Y-52710894D01*
X123014344Y-52660000D01*
X137717721Y-52660000D01*
X138203893Y-52707670D01*
G37*
%TD.AperFunction*%
%TD*%
M02*
