%TF.GenerationSoftware,KiCad,Pcbnew,(5.1.9)-1*%
%TF.CreationDate,2021-11-16T01:46:06-03:00*%
%TF.ProjectId,20-10-adapter,32302d31-302d-4616-9461-707465722e6b,rev?*%
%TF.SameCoordinates,Original*%
%TF.FileFunction,Legend,Bot*%
%TF.FilePolarity,Positive*%
%FSLAX46Y46*%
G04 Gerber Fmt 4.6, Leading zero omitted, Abs format (unit mm)*
G04 Created by KiCad (PCBNEW (5.1.9)-1) date 2021-11-16 01:46:06*
%MOMM*%
%LPD*%
G01*
G04 APERTURE LIST*
%ADD10C,0.150000*%
G04 APERTURE END LIST*
D10*
X134619047Y-53252380D02*
X134619047Y-53966666D01*
X134666666Y-54109523D01*
X134761904Y-54204761D01*
X134904761Y-54252380D01*
X135000000Y-54252380D01*
X133666666Y-54252380D02*
X134142857Y-54252380D01*
X134142857Y-53252380D01*
X132761904Y-54157142D02*
X132809523Y-54204761D01*
X132952380Y-54252380D01*
X133047619Y-54252380D01*
X133190476Y-54204761D01*
X133285714Y-54109523D01*
X133333333Y-54014285D01*
X133380952Y-53823809D01*
X133380952Y-53680952D01*
X133333333Y-53490476D01*
X133285714Y-53395238D01*
X133190476Y-53300000D01*
X133047619Y-53252380D01*
X132952380Y-53252380D01*
X132809523Y-53300000D01*
X132761904Y-53347619D01*
X132047619Y-53252380D02*
X132047619Y-53966666D01*
X132095238Y-54109523D01*
X132190476Y-54204761D01*
X132333333Y-54252380D01*
X132428571Y-54252380D01*
X131095238Y-54252380D02*
X131571428Y-54252380D01*
X131571428Y-53252380D01*
X130190476Y-54157142D02*
X130238095Y-54204761D01*
X130380952Y-54252380D01*
X130476190Y-54252380D01*
X130619047Y-54204761D01*
X130714285Y-54109523D01*
X130761904Y-54014285D01*
X130809523Y-53823809D01*
X130809523Y-53680952D01*
X130761904Y-53490476D01*
X130714285Y-53395238D01*
X130619047Y-53300000D01*
X130476190Y-53252380D01*
X130380952Y-53252380D01*
X130238095Y-53300000D01*
X130190476Y-53347619D01*
X129476190Y-53252380D02*
X129476190Y-53966666D01*
X129523809Y-54109523D01*
X129619047Y-54204761D01*
X129761904Y-54252380D01*
X129857142Y-54252380D01*
X128523809Y-54252380D02*
X129000000Y-54252380D01*
X129000000Y-53252380D01*
X127619047Y-54157142D02*
X127666666Y-54204761D01*
X127809523Y-54252380D01*
X127904761Y-54252380D01*
X128047619Y-54204761D01*
X128142857Y-54109523D01*
X128190476Y-54014285D01*
X128238095Y-53823809D01*
X128238095Y-53680952D01*
X128190476Y-53490476D01*
X128142857Y-53395238D01*
X128047619Y-53300000D01*
X127904761Y-53252380D01*
X127809523Y-53252380D01*
X127666666Y-53300000D01*
X127619047Y-53347619D01*
X126904761Y-53252380D02*
X126904761Y-53966666D01*
X126952380Y-54109523D01*
X127047619Y-54204761D01*
X127190476Y-54252380D01*
X127285714Y-54252380D01*
X125952380Y-54252380D02*
X126428571Y-54252380D01*
X126428571Y-53252380D01*
X125047619Y-54157142D02*
X125095238Y-54204761D01*
X125238095Y-54252380D01*
X125333333Y-54252380D01*
X125476190Y-54204761D01*
X125571428Y-54109523D01*
X125619047Y-54014285D01*
X125666666Y-53823809D01*
X125666666Y-53680952D01*
X125619047Y-53490476D01*
X125571428Y-53395238D01*
X125476190Y-53300000D01*
X125333333Y-53252380D01*
X125238095Y-53252380D01*
X125095238Y-53300000D01*
X125047619Y-53347619D01*
M02*
