%TF.GenerationSoftware,KiCad,Pcbnew,(5.1.9)-1*%
%TF.CreationDate,2021-11-16T01:46:06-03:00*%
%TF.ProjectId,20-10-adapter,32302d31-302d-4616-9461-707465722e6b,rev?*%
%TF.SameCoordinates,Original*%
%TF.FileFunction,Legend,Top*%
%TF.FilePolarity,Positive*%
%FSLAX46Y46*%
G04 Gerber Fmt 4.6, Leading zero omitted, Abs format (unit mm)*
G04 Created by KiCad (PCBNEW (5.1.9)-1) date 2021-11-16 01:46:06*
%MOMM*%
%LPD*%
G01*
G04 APERTURE LIST*
%ADD10C,0.150000*%
%ADD11C,0.120000*%
G04 APERTURE END LIST*
D10*
X135559523Y-60452380D02*
X135750000Y-60452380D01*
X135845238Y-60404761D01*
X135892857Y-60357142D01*
X135988095Y-60214285D01*
X136035714Y-60023809D01*
X136035714Y-59642857D01*
X135988095Y-59547619D01*
X135940476Y-59500000D01*
X135845238Y-59452380D01*
X135654761Y-59452380D01*
X135559523Y-59500000D01*
X135511904Y-59547619D01*
X135464285Y-59642857D01*
X135464285Y-59880952D01*
X135511904Y-59976190D01*
X135559523Y-60023809D01*
X135654761Y-60071428D01*
X135845238Y-60071428D01*
X135940476Y-60023809D01*
X135988095Y-59976190D01*
X136035714Y-59880952D01*
X137964285Y-74297619D02*
X138011904Y-74250000D01*
X138107142Y-74202380D01*
X138345238Y-74202380D01*
X138440476Y-74250000D01*
X138488095Y-74297619D01*
X138535714Y-74392857D01*
X138535714Y-74488095D01*
X138488095Y-74630952D01*
X137916666Y-75202380D01*
X138535714Y-75202380D01*
X135785714Y-75202380D02*
X135214285Y-75202380D01*
X135500000Y-75202380D02*
X135500000Y-74202380D01*
X135404761Y-74345238D01*
X135309523Y-74440476D01*
X135214285Y-74488095D01*
X122738095Y-53297619D02*
X122785714Y-53250000D01*
X122880952Y-53202380D01*
X123119047Y-53202380D01*
X123214285Y-53250000D01*
X123261904Y-53297619D01*
X123309523Y-53392857D01*
X123309523Y-53488095D01*
X123261904Y-53630952D01*
X122690476Y-54202380D01*
X123309523Y-54202380D01*
X123928571Y-53202380D02*
X124023809Y-53202380D01*
X124119047Y-53250000D01*
X124166666Y-53297619D01*
X124214285Y-53392857D01*
X124261904Y-53583333D01*
X124261904Y-53821428D01*
X124214285Y-54011904D01*
X124166666Y-54107142D01*
X124119047Y-54154761D01*
X124023809Y-54202380D01*
X123928571Y-54202380D01*
X123833333Y-54154761D01*
X123785714Y-54107142D01*
X123738095Y-54011904D01*
X123690476Y-53821428D01*
X123690476Y-53583333D01*
X123738095Y-53392857D01*
X123785714Y-53297619D01*
X123833333Y-53250000D01*
X123928571Y-53202380D01*
X125809523Y-54202380D02*
X125238095Y-54202380D01*
X125523809Y-54202380D02*
X125523809Y-53202380D01*
X125428571Y-53345238D01*
X125333333Y-53440476D01*
X125238095Y-53488095D01*
X126285714Y-54202380D02*
X126476190Y-54202380D01*
X126571428Y-54154761D01*
X126619047Y-54107142D01*
X126714285Y-53964285D01*
X126761904Y-53773809D01*
X126761904Y-53392857D01*
X126714285Y-53297619D01*
X126666666Y-53250000D01*
X126571428Y-53202380D01*
X126380952Y-53202380D01*
X126285714Y-53250000D01*
X126238095Y-53297619D01*
X126190476Y-53392857D01*
X126190476Y-53630952D01*
X126238095Y-53726190D01*
X126285714Y-53773809D01*
X126380952Y-53821428D01*
X126571428Y-53821428D01*
X126666666Y-53773809D01*
X126714285Y-53726190D01*
X126761904Y-53630952D01*
X126035714Y-81952380D02*
X125464285Y-81952380D01*
X125750000Y-81952380D02*
X125750000Y-80952380D01*
X125654761Y-81095238D01*
X125559523Y-81190476D01*
X125464285Y-81238095D01*
X130404761Y-57654761D02*
X130547619Y-57702380D01*
X130785714Y-57702380D01*
X130880952Y-57654761D01*
X130928571Y-57607142D01*
X130976190Y-57511904D01*
X130976190Y-57416666D01*
X130928571Y-57321428D01*
X130880952Y-57273809D01*
X130785714Y-57226190D01*
X130595238Y-57178571D01*
X130500000Y-57130952D01*
X130452380Y-57083333D01*
X130404761Y-56988095D01*
X130404761Y-56892857D01*
X130452380Y-56797619D01*
X130500000Y-56750000D01*
X130595238Y-56702380D01*
X130833333Y-56702380D01*
X130976190Y-56750000D01*
X131309523Y-56702380D02*
X131547619Y-57702380D01*
X131738095Y-56988095D01*
X131928571Y-57702380D01*
X132166666Y-56702380D01*
X132547619Y-57702380D02*
X132547619Y-56702380D01*
X132785714Y-56702380D01*
X132928571Y-56750000D01*
X133023809Y-56845238D01*
X133071428Y-56940476D01*
X133119047Y-57130952D01*
X133119047Y-57273809D01*
X133071428Y-57464285D01*
X133023809Y-57559523D01*
X132928571Y-57654761D01*
X132785714Y-57702380D01*
X132547619Y-57702380D01*
X134738095Y-57702380D02*
X134738095Y-57178571D01*
X134690476Y-57083333D01*
X134595238Y-57035714D01*
X134404761Y-57035714D01*
X134309523Y-57083333D01*
X134738095Y-57654761D02*
X134642857Y-57702380D01*
X134404761Y-57702380D01*
X134309523Y-57654761D01*
X134261904Y-57559523D01*
X134261904Y-57464285D01*
X134309523Y-57369047D01*
X134404761Y-57321428D01*
X134642857Y-57321428D01*
X134738095Y-57273809D01*
X135642857Y-57702380D02*
X135642857Y-56702380D01*
X135642857Y-57654761D02*
X135547619Y-57702380D01*
X135357142Y-57702380D01*
X135261904Y-57654761D01*
X135214285Y-57607142D01*
X135166666Y-57511904D01*
X135166666Y-57226190D01*
X135214285Y-57130952D01*
X135261904Y-57083333D01*
X135357142Y-57035714D01*
X135547619Y-57035714D01*
X135642857Y-57083333D01*
X136547619Y-57702380D02*
X136547619Y-57178571D01*
X136500000Y-57083333D01*
X136404761Y-57035714D01*
X136214285Y-57035714D01*
X136119047Y-57083333D01*
X136547619Y-57654761D02*
X136452380Y-57702380D01*
X136214285Y-57702380D01*
X136119047Y-57654761D01*
X136071428Y-57559523D01*
X136071428Y-57464285D01*
X136119047Y-57369047D01*
X136214285Y-57321428D01*
X136452380Y-57321428D01*
X136547619Y-57273809D01*
X137023809Y-57035714D02*
X137023809Y-58035714D01*
X137023809Y-57083333D02*
X137119047Y-57035714D01*
X137309523Y-57035714D01*
X137404761Y-57083333D01*
X137452380Y-57130952D01*
X137500000Y-57226190D01*
X137500000Y-57511904D01*
X137452380Y-57607142D01*
X137404761Y-57654761D01*
X137309523Y-57702380D01*
X137119047Y-57702380D01*
X137023809Y-57654761D01*
X137785714Y-57035714D02*
X138166666Y-57035714D01*
X137928571Y-56702380D02*
X137928571Y-57559523D01*
X137976190Y-57654761D01*
X138071428Y-57702380D01*
X138166666Y-57702380D01*
X138642857Y-57702380D02*
X138547619Y-57654761D01*
X138500000Y-57607142D01*
X138452380Y-57511904D01*
X138452380Y-57226190D01*
X138500000Y-57130952D01*
X138547619Y-57083333D01*
X138642857Y-57035714D01*
X138785714Y-57035714D01*
X138880952Y-57083333D01*
X138928571Y-57130952D01*
X138976190Y-57226190D01*
X138976190Y-57511904D01*
X138928571Y-57607142D01*
X138880952Y-57654761D01*
X138785714Y-57702380D01*
X138642857Y-57702380D01*
X139404761Y-57702380D02*
X139404761Y-57035714D01*
X139404761Y-57226190D02*
X139452380Y-57130952D01*
X139500000Y-57083333D01*
X139595238Y-57035714D01*
X139690476Y-57035714D01*
X131059523Y-53297619D02*
X131107142Y-53250000D01*
X131202380Y-53202380D01*
X131440476Y-53202380D01*
X131535714Y-53250000D01*
X131583333Y-53297619D01*
X131630952Y-53392857D01*
X131630952Y-53488095D01*
X131583333Y-53630952D01*
X131011904Y-54202380D01*
X131630952Y-54202380D01*
X132250000Y-53202380D02*
X132345238Y-53202380D01*
X132440476Y-53250000D01*
X132488095Y-53297619D01*
X132535714Y-53392857D01*
X132583333Y-53583333D01*
X132583333Y-53821428D01*
X132535714Y-54011904D01*
X132488095Y-54107142D01*
X132440476Y-54154761D01*
X132345238Y-54202380D01*
X132250000Y-54202380D01*
X132154761Y-54154761D01*
X132107142Y-54107142D01*
X132059523Y-54011904D01*
X132011904Y-53821428D01*
X132011904Y-53583333D01*
X132059523Y-53392857D01*
X132107142Y-53297619D01*
X132154761Y-53250000D01*
X132250000Y-53202380D01*
X133011904Y-53821428D02*
X133773809Y-53821428D01*
X134107142Y-53535714D02*
X134488095Y-53535714D01*
X134250000Y-53202380D02*
X134250000Y-54059523D01*
X134297619Y-54154761D01*
X134392857Y-54202380D01*
X134488095Y-54202380D01*
X134964285Y-54202380D02*
X134869047Y-54154761D01*
X134821428Y-54107142D01*
X134773809Y-54011904D01*
X134773809Y-53726190D01*
X134821428Y-53630952D01*
X134869047Y-53583333D01*
X134964285Y-53535714D01*
X135107142Y-53535714D01*
X135202380Y-53583333D01*
X135250000Y-53630952D01*
X135297619Y-53726190D01*
X135297619Y-54011904D01*
X135250000Y-54107142D01*
X135202380Y-54154761D01*
X135107142Y-54202380D01*
X134964285Y-54202380D01*
X135726190Y-53821428D02*
X136488095Y-53821428D01*
X137488095Y-54202380D02*
X136916666Y-54202380D01*
X137202380Y-54202380D02*
X137202380Y-53202380D01*
X137107142Y-53345238D01*
X137011904Y-53440476D01*
X136916666Y-53488095D01*
X138107142Y-53202380D02*
X138202380Y-53202380D01*
X138297619Y-53250000D01*
X138345238Y-53297619D01*
X138392857Y-53392857D01*
X138440476Y-53583333D01*
X138440476Y-53821428D01*
X138392857Y-54011904D01*
X138345238Y-54107142D01*
X138297619Y-54154761D01*
X138202380Y-54202380D01*
X138107142Y-54202380D01*
X138011904Y-54154761D01*
X137964285Y-54107142D01*
X137916666Y-54011904D01*
X137869047Y-53821428D01*
X137869047Y-53583333D01*
X137916666Y-53392857D01*
X137964285Y-53297619D01*
X138011904Y-53250000D01*
X138107142Y-53202380D01*
X123214285Y-81047619D02*
X123261904Y-81000000D01*
X123357142Y-80952380D01*
X123595238Y-80952380D01*
X123690476Y-81000000D01*
X123738095Y-81047619D01*
X123785714Y-81142857D01*
X123785714Y-81238095D01*
X123738095Y-81380952D01*
X123166666Y-81952380D01*
X123785714Y-81952380D01*
D11*
%TO.C,J2*%
X122020000Y-80330000D02*
X122020000Y-54810000D01*
X122020000Y-54810000D02*
X119360000Y-54810000D01*
X119360000Y-54810000D02*
X119360000Y-80330000D01*
X119360000Y-80330000D02*
X122020000Y-80330000D01*
X119360000Y-79380000D02*
X113360000Y-79380000D01*
X113360000Y-79380000D02*
X113360000Y-78620000D01*
X113360000Y-78620000D02*
X119360000Y-78620000D01*
X119360000Y-79320000D02*
X113360000Y-79320000D01*
X119360000Y-79200000D02*
X113360000Y-79200000D01*
X119360000Y-79080000D02*
X113360000Y-79080000D01*
X119360000Y-78960000D02*
X113360000Y-78960000D01*
X119360000Y-78840000D02*
X113360000Y-78840000D01*
X119360000Y-78720000D02*
X113360000Y-78720000D01*
X122417071Y-79380000D02*
X122020000Y-79380000D01*
X122417071Y-78620000D02*
X122020000Y-78620000D01*
X124890000Y-79380000D02*
X124502929Y-79380000D01*
X124890000Y-78620000D02*
X124502929Y-78620000D01*
X122020000Y-77730000D02*
X119360000Y-77730000D01*
X119360000Y-76840000D02*
X113360000Y-76840000D01*
X113360000Y-76840000D02*
X113360000Y-76080000D01*
X113360000Y-76080000D02*
X119360000Y-76080000D01*
X122417071Y-76840000D02*
X122020000Y-76840000D01*
X122417071Y-76080000D02*
X122020000Y-76080000D01*
X124957071Y-76840000D02*
X124502929Y-76840000D01*
X124957071Y-76080000D02*
X124502929Y-76080000D01*
X122020000Y-75190000D02*
X119360000Y-75190000D01*
X119360000Y-74300000D02*
X113360000Y-74300000D01*
X113360000Y-74300000D02*
X113360000Y-73540000D01*
X113360000Y-73540000D02*
X119360000Y-73540000D01*
X122417071Y-74300000D02*
X122020000Y-74300000D01*
X122417071Y-73540000D02*
X122020000Y-73540000D01*
X124957071Y-74300000D02*
X124502929Y-74300000D01*
X124957071Y-73540000D02*
X124502929Y-73540000D01*
X122020000Y-72650000D02*
X119360000Y-72650000D01*
X119360000Y-71760000D02*
X113360000Y-71760000D01*
X113360000Y-71760000D02*
X113360000Y-71000000D01*
X113360000Y-71000000D02*
X119360000Y-71000000D01*
X122417071Y-71760000D02*
X122020000Y-71760000D01*
X122417071Y-71000000D02*
X122020000Y-71000000D01*
X124957071Y-71760000D02*
X124502929Y-71760000D01*
X124957071Y-71000000D02*
X124502929Y-71000000D01*
X122020000Y-70110000D02*
X119360000Y-70110000D01*
X119360000Y-69220000D02*
X113360000Y-69220000D01*
X113360000Y-69220000D02*
X113360000Y-68460000D01*
X113360000Y-68460000D02*
X119360000Y-68460000D01*
X122417071Y-69220000D02*
X122020000Y-69220000D01*
X122417071Y-68460000D02*
X122020000Y-68460000D01*
X124957071Y-69220000D02*
X124502929Y-69220000D01*
X124957071Y-68460000D02*
X124502929Y-68460000D01*
X122020000Y-67570000D02*
X119360000Y-67570000D01*
X119360000Y-66680000D02*
X113360000Y-66680000D01*
X113360000Y-66680000D02*
X113360000Y-65920000D01*
X113360000Y-65920000D02*
X119360000Y-65920000D01*
X122417071Y-66680000D02*
X122020000Y-66680000D01*
X122417071Y-65920000D02*
X122020000Y-65920000D01*
X124957071Y-66680000D02*
X124502929Y-66680000D01*
X124957071Y-65920000D02*
X124502929Y-65920000D01*
X122020000Y-65030000D02*
X119360000Y-65030000D01*
X119360000Y-64140000D02*
X113360000Y-64140000D01*
X113360000Y-64140000D02*
X113360000Y-63380000D01*
X113360000Y-63380000D02*
X119360000Y-63380000D01*
X122417071Y-64140000D02*
X122020000Y-64140000D01*
X122417071Y-63380000D02*
X122020000Y-63380000D01*
X124957071Y-64140000D02*
X124502929Y-64140000D01*
X124957071Y-63380000D02*
X124502929Y-63380000D01*
X122020000Y-62490000D02*
X119360000Y-62490000D01*
X119360000Y-61600000D02*
X113360000Y-61600000D01*
X113360000Y-61600000D02*
X113360000Y-60840000D01*
X113360000Y-60840000D02*
X119360000Y-60840000D01*
X122417071Y-61600000D02*
X122020000Y-61600000D01*
X122417071Y-60840000D02*
X122020000Y-60840000D01*
X124957071Y-61600000D02*
X124502929Y-61600000D01*
X124957071Y-60840000D02*
X124502929Y-60840000D01*
X122020000Y-59950000D02*
X119360000Y-59950000D01*
X119360000Y-59060000D02*
X113360000Y-59060000D01*
X113360000Y-59060000D02*
X113360000Y-58300000D01*
X113360000Y-58300000D02*
X119360000Y-58300000D01*
X122417071Y-59060000D02*
X122020000Y-59060000D01*
X122417071Y-58300000D02*
X122020000Y-58300000D01*
X124957071Y-59060000D02*
X124502929Y-59060000D01*
X124957071Y-58300000D02*
X124502929Y-58300000D01*
X122020000Y-57410000D02*
X119360000Y-57410000D01*
X119360000Y-56520000D02*
X113360000Y-56520000D01*
X113360000Y-56520000D02*
X113360000Y-55760000D01*
X113360000Y-55760000D02*
X119360000Y-55760000D01*
X122417071Y-56520000D02*
X122020000Y-56520000D01*
X122417071Y-55760000D02*
X122020000Y-55760000D01*
X124957071Y-56520000D02*
X124502929Y-56520000D01*
X124957071Y-55760000D02*
X124502929Y-55760000D01*
X127270000Y-79000000D02*
X127270000Y-80270000D01*
X127270000Y-80270000D02*
X126000000Y-80270000D01*
%TO.C,J1*%
X148430000Y-73410000D02*
X139800000Y-73410000D01*
X148430000Y-73291905D02*
X139800000Y-73291905D01*
X148430000Y-73173810D02*
X139800000Y-73173810D01*
X148430000Y-73055715D02*
X139800000Y-73055715D01*
X148430000Y-72937620D02*
X139800000Y-72937620D01*
X148430000Y-72819525D02*
X139800000Y-72819525D01*
X148430000Y-72701430D02*
X139800000Y-72701430D01*
X148430000Y-72583335D02*
X139800000Y-72583335D01*
X148430000Y-72465240D02*
X139800000Y-72465240D01*
X148430000Y-72347145D02*
X139800000Y-72347145D01*
X148430000Y-72229050D02*
X139800000Y-72229050D01*
X148430000Y-72110955D02*
X139800000Y-72110955D01*
X148430000Y-71992860D02*
X139800000Y-71992860D01*
X148430000Y-71874765D02*
X139800000Y-71874765D01*
X148430000Y-71756670D02*
X139800000Y-71756670D01*
X148430000Y-71638575D02*
X139800000Y-71638575D01*
X148430000Y-71520480D02*
X139800000Y-71520480D01*
X148430000Y-71402385D02*
X139800000Y-71402385D01*
X148430000Y-71284290D02*
X139800000Y-71284290D01*
X148430000Y-71166195D02*
X139800000Y-71166195D01*
X148430000Y-71048100D02*
X139800000Y-71048100D01*
X139800000Y-72560000D02*
X139390000Y-72560000D01*
X137290000Y-72560000D02*
X136910000Y-72560000D01*
X139800000Y-71840000D02*
X139390000Y-71840000D01*
X137290000Y-71840000D02*
X136910000Y-71840000D01*
X139800000Y-70020000D02*
X139390000Y-70020000D01*
X137290000Y-70020000D02*
X136850000Y-70020000D01*
X139800000Y-69300000D02*
X139390000Y-69300000D01*
X137290000Y-69300000D02*
X136850000Y-69300000D01*
X139800000Y-67480000D02*
X139390000Y-67480000D01*
X137290000Y-67480000D02*
X136850000Y-67480000D01*
X139800000Y-66760000D02*
X139390000Y-66760000D01*
X137290000Y-66760000D02*
X136850000Y-66760000D01*
X139800000Y-64940000D02*
X139390000Y-64940000D01*
X137290000Y-64940000D02*
X136850000Y-64940000D01*
X139800000Y-64220000D02*
X139390000Y-64220000D01*
X137290000Y-64220000D02*
X136850000Y-64220000D01*
X139800000Y-62400000D02*
X139390000Y-62400000D01*
X137290000Y-62400000D02*
X136850000Y-62400000D01*
X139800000Y-61680000D02*
X139390000Y-61680000D01*
X137290000Y-61680000D02*
X136850000Y-61680000D01*
X148430000Y-70930000D02*
X139800000Y-70930000D01*
X148430000Y-68390000D02*
X139800000Y-68390000D01*
X148430000Y-65850000D02*
X139800000Y-65850000D01*
X148430000Y-63310000D02*
X139800000Y-63310000D01*
X148430000Y-73530000D02*
X139800000Y-73530000D01*
X139800000Y-73530000D02*
X139800000Y-60710000D01*
X148430000Y-60710000D02*
X139800000Y-60710000D01*
X148430000Y-73530000D02*
X148430000Y-60710000D01*
X134690000Y-73530000D02*
X134690000Y-72200000D01*
X135800000Y-73530000D02*
X134690000Y-73530000D01*
%TD*%
M02*
